<mxfile host="app.diagrams.net" modified="2023-10-09T20:18:33.034Z" agent="Mozilla/5.0 (Macintosh; Intel Mac OS X 10_15_7) AppleWebKit/605.1.15 (KHTML, like Gecko) Version/16.4 Safari/605.1.15" version="22.0.4" etag="UQcw777UpZOxtAFUi8FY" type="github">
  <diagram name="PÃ¡gina-1" id="c37tohY4LWENZUHatVPR">
    <mxGraphModel>
      <root>
        <mxCell id="0" />
        <mxCell id="1" parent="0" />
      </root>
    </mxGraphModel>
  </diagram>
</mxfile>
